  0
SECTION
  2
HEADER
  9
$ACADVER
  1
AC1009
  9
$FILLMODE
 70
 0
  9
$SPLFRAME
 70
 1
  9
$EXTMIN
 10
0
 20
0
 30
0.0
  9
$EXTMAX
 10
1058.33
 20
1058.33
 30
0.0
  0
ENDSEC
  0
SECTION
  2
TABLES
  0
TABLE
  2
LAYER
 70
1
  0
LAYER
  2
0
 70
     0
 62
     7
  6
CONTINUOUS
  0
ENDTAB
  0
ENDSEC
  0
SECTION
  2
ENTITIES
  0
LINE
  8
0
 62
     0
 10
0.0950846
 20
95.8603
 30
0.0
 11
80.2954
 21
95.8603
 31
0.0
  0
LINE
  8
0
 62
     0
 10
80.2954
 20
95.8603
 30
0.0
 11
80.2954
 21
0.135048
 31
0.0
  0
LINE
  8
0
 62
     0
 10
80.2954
 20
0.135048
 30
0.0
 11
0.0950846
 21
0.135048
 31
0.0
  0
LINE
  8
0
 62
     0
 10
0.0950846
 20
0.135048
 30
0.0
 11
0.0950846
 21
95.8603
 31
0.0
  0
LINE
  8
0
 62
     0
 10
4.61779
 20
21.6614
 30
0.0
 11
4.61779
 21
20.6609
 31
0.0
  0
LINE
  8
0
 62
     0
 10
4.61779
 20
20.6609
 30
0.0
 11
3.81854
 21
20.6609
 31
0.0
  0
LINE
  8
0
 62
     0
 10
3.81854
 20
20.6609
 30
0.0
 11
3.81854
 21
17.5617
 31
0.0
  0
LINE
  8
0
 62
     0
 10
3.81854
 20
17.5617
 30
0.0
 11
4.61779
 21
17.5617
 31
0.0
  0
LINE
  8
0
 62
     0
 10
4.61779
 20
17.5617
 30
0.0
 11
4.61779
 21
11.7615
 31
0.0
  0
LINE
  8
0
 62
     0
 10
4.61779
 20
11.7615
 30
0.0
 11
3.81854
 21
11.7615
 31
0.0
  0
LINE
  8
0
 62
     0
 10
3.81854
 20
11.7615
 30
0.0
 11
3.81854
 21
8.66098
 31
0.0
  0
LINE
  8
0
 62
     0
 10
3.81854
 20
8.66098
 30
0.0
 11
4.61779
 21
8.66098
 31
0.0
  0
LINE
  8
0
 62
     0
 10
4.61779
 20
8.66098
 30
0.0
 11
4.61779
 21
7.6605
 31
0.0
  0
LINE
  8
0
 62
     0
 10
4.61779
 20
7.6605
 30
0.0
 11
18.6201
 21
7.6605
 31
0.0
  0
LINE
  8
0
 62
     0
 10
18.6201
 20
7.6605
 30
0.0
 11
18.6201
 21
8.66098
 31
0.0
  0
LINE
  8
0
 62
     0
 10
18.6201
 20
8.66098
 30
0.0
 11
19.4193
 21
8.66098
 31
0.0
  0
LINE
  8
0
 62
     0
 10
19.4193
 20
8.66098
 30
0.0
 11
19.4193
 21
11.7615
 31
0.0
  0
LINE
  8
0
 62
     0
 10
19.4193
 20
11.7615
 30
0.0
 11
18.6201
 21
11.7615
 31
0.0
  0
LINE
  8
0
 62
     0
 10
18.6201
 20
11.7615
 30
0.0
 11
18.6201
 21
17.5617
 31
0.0
  0
LINE
  8
0
 62
     0
 10
18.6201
 20
17.5617
 30
0.0
 11
19.4193
 21
17.5617
 31
0.0
  0
LINE
  8
0
 62
     0
 10
19.4193
 20
17.5617
 30
0.0
 11
19.4193
 21
20.6609
 31
0.0
  0
LINE
  8
0
 62
     0
 10
19.4193
 20
20.6609
 30
0.0
 11
18.6201
 21
20.6609
 31
0.0
  0
LINE
  8
0
 62
     0
 10
18.6201
 20
20.6609
 30
0.0
 11
18.6201
 21
21.6614
 31
0.0
  0
LINE
  8
0
 62
     0
 10
18.6201
 20
21.6614
 30
0.0
 11
4.61779
 21
21.6614
 31
0.0
  0
LINE
  8
0
 62
     0
 10
23.6692
 20
21.6614
 30
0.0
 11
23.6692
 21
20.6609
 31
0.0
  0
LINE
  8
0
 62
     0
 10
23.6692
 20
20.6609
 30
0.0
 11
22.8699
 21
20.6609
 31
0.0
  0
LINE
  8
0
 62
     0
 10
22.8699
 20
20.6609
 30
0.0
 11
22.8699
 21
17.5617
 31
0.0
  0
LINE
  8
0
 62
     0
 10
22.8699
 20
17.5617
 30
0.0
 11
23.6692
 21
17.5617
 31
0.0
  0
LINE
  8
0
 62
     0
 10
23.6692
 20
17.5617
 30
0.0
 11
23.6692
 21
11.7615
 31
0.0
  0
LINE
  8
0
 62
     0
 10
23.6692
 20
11.7615
 30
0.0
 11
22.8699
 21
11.7615
 31
0.0
  0
LINE
  8
0
 62
     0
 10
22.8699
 20
11.7615
 30
0.0
 11
22.8699
 21
8.66098
 31
0.0
  0
LINE
  8
0
 62
     0
 10
22.8699
 20
8.66098
 30
0.0
 11
23.6692
 21
8.66098
 31
0.0
  0
LINE
  8
0
 62
     0
 10
23.6692
 20
8.66098
 30
0.0
 11
23.6692
 21
7.6605
 31
0.0
  0
LINE
  8
0
 62
     0
 10
23.6692
 20
7.6605
 30
0.0
 11
37.67
 21
7.6605
 31
0.0
  0
LINE
  8
0
 62
     0
 10
37.67
 20
7.6605
 30
0.0
 11
37.67
 21
8.66098
 31
0.0
  0
LINE
  8
0
 62
     0
 10
37.67
 20
8.66098
 30
0.0
 11
38.4694
 21
8.66098
 31
0.0
  0
LINE
  8
0
 62
     0
 10
38.4694
 20
8.66098
 30
0.0
 11
38.4694
 21
11.7615
 31
0.0
  0
LINE
  8
0
 62
     0
 10
38.4694
 20
11.7615
 30
0.0
 11
37.67
 21
11.7615
 31
0.0
  0
LINE
  8
0
 62
     0
 10
37.67
 20
11.7615
 30
0.0
 11
37.67
 21
17.5617
 31
0.0
  0
LINE
  8
0
 62
     0
 10
37.67
 20
17.5617
 30
0.0
 11
38.4694
 21
17.5617
 31
0.0
  0
LINE
  8
0
 62
     0
 10
38.4694
 20
17.5617
 30
0.0
 11
38.4694
 21
20.6609
 31
0.0
  0
LINE
  8
0
 62
     0
 10
38.4694
 20
20.6609
 30
0.0
 11
37.67
 21
20.6609
 31
0.0
  0
LINE
  8
0
 62
     0
 10
37.67
 20
20.6609
 30
0.0
 11
37.67
 21
21.6614
 31
0.0
  0
LINE
  8
0
 62
     0
 10
37.67
 20
21.6614
 30
0.0
 11
23.6692
 21
21.6614
 31
0.0
  0
LINE
  8
0
 62
     0
 10
52.2443
 20
31.1864
 30
0.0
 11
52.2443
 21
30.1859
 31
0.0
  0
LINE
  8
0
 62
     0
 10
52.2443
 20
30.1859
 30
0.0
 11
51.4449
 21
30.1859
 31
0.0
  0
LINE
  8
0
 62
     0
 10
51.4449
 20
30.1859
 30
0.0
 11
51.4449
 21
27.0867
 31
0.0
  0
LINE
  8
0
 62
     0
 10
51.4449
 20
27.0867
 30
0.0
 11
52.2443
 21
27.0867
 31
0.0
  0
LINE
  8
0
 62
     0
 10
52.2443
 20
27.0867
 30
0.0
 11
52.2443
 21
21.2865
 31
0.0
  0
LINE
  8
0
 62
     0
 10
52.2443
 20
21.2865
 30
0.0
 11
51.4449
 21
21.2865
 31
0.0
  0
LINE
  8
0
 62
     0
 10
51.4449
 20
21.2865
 30
0.0
 11
51.4449
 21
18.186
 31
0.0
  0
LINE
  8
0
 62
     0
 10
51.4449
 20
18.186
 30
0.0
 11
52.2443
 21
18.186
 31
0.0
  0
LINE
  8
0
 62
     0
 10
52.2443
 20
18.186
 30
0.0
 11
52.2443
 21
17.1855
 31
0.0
  0
LINE
  8
0
 62
     0
 10
52.2443
 20
17.1855
 30
0.0
 11
66.245
 21
17.1855
 31
0.0
  0
LINE
  8
0
 62
     0
 10
66.245
 20
17.1855
 30
0.0
 11
66.245
 21
18.186
 31
0.0
  0
LINE
  8
0
 62
     0
 10
66.245
 20
18.186
 30
0.0
 11
67.0444
 21
18.186
 31
0.0
  0
LINE
  8
0
 62
     0
 10
67.0444
 20
18.186
 30
0.0
 11
67.0444
 21
21.2865
 31
0.0
  0
LINE
  8
0
 62
     0
 10
67.0444
 20
21.2865
 30
0.0
 11
66.245
 21
21.2865
 31
0.0
  0
LINE
  8
0
 62
     0
 10
66.245
 20
21.2865
 30
0.0
 11
66.245
 21
27.0867
 31
0.0
  0
LINE
  8
0
 62
     0
 10
66.245
 20
27.0867
 30
0.0
 11
67.0444
 21
27.0867
 31
0.0
  0
LINE
  8
0
 62
     0
 10
67.0444
 20
27.0867
 30
0.0
 11
67.0444
 21
30.1859
 31
0.0
  0
LINE
  8
0
 62
     0
 10
67.0444
 20
30.1859
 30
0.0
 11
66.245
 21
30.1859
 31
0.0
  0
LINE
  8
0
 62
     0
 10
66.245
 20
30.1859
 30
0.0
 11
66.245
 21
31.1864
 31
0.0
  0
LINE
  8
0
 62
     0
 10
66.245
 20
31.1864
 30
0.0
 11
52.2443
 21
31.1864
 31
0.0
  0
LINE
  8
0
 62
     0
 10
4.61779
 20
40.7113
 30
0.0
 11
4.61779
 21
39.7108
 31
0.0
  0
LINE
  8
0
 62
     0
 10
4.61779
 20
39.7108
 30
0.0
 11
3.81854
 21
39.7108
 31
0.0
  0
LINE
  8
0
 62
     0
 10
3.81854
 20
39.7108
 30
0.0
 11
3.81854
 21
36.6116
 31
0.0
  0
LINE
  8
0
 62
     0
 10
3.81854
 20
36.6116
 30
0.0
 11
4.61779
 21
36.6116
 31
0.0
  0
LINE
  8
0
 62
     0
 10
4.61779
 20
36.6116
 30
0.0
 11
4.61779
 21
30.8115
 31
0.0
  0
LINE
  8
0
 62
     0
 10
4.61779
 20
30.8115
 30
0.0
 11
3.81854
 21
30.8115
 31
0.0
  0
LINE
  8
0
 62
     0
 10
3.81854
 20
30.8115
 30
0.0
 11
3.81854
 21
27.711
 31
0.0
  0
LINE
  8
0
 62
     0
 10
3.81854
 20
27.711
 30
0.0
 11
4.61779
 21
27.711
 31
0.0
  0
LINE
  8
0
 62
     0
 10
4.61779
 20
27.711
 30
0.0
 11
4.61779
 21
26.7105
 31
0.0
  0
LINE
  8
0
 62
     0
 10
4.61779
 20
26.7105
 30
0.0
 11
18.6201
 21
26.7105
 31
0.0
  0
LINE
  8
0
 62
     0
 10
18.6201
 20
26.7105
 30
0.0
 11
18.6201
 21
27.711
 31
0.0
  0
LINE
  8
0
 62
     0
 10
18.6201
 20
27.711
 30
0.0
 11
19.4193
 21
27.711
 31
0.0
  0
LINE
  8
0
 62
     0
 10
19.4193
 20
27.711
 30
0.0
 11
19.4193
 21
30.8115
 31
0.0
  0
LINE
  8
0
 62
     0
 10
19.4193
 20
30.8115
 30
0.0
 11
18.6201
 21
30.8115
 31
0.0
  0
LINE
  8
0
 62
     0
 10
18.6201
 20
30.8115
 30
0.0
 11
18.6201
 21
36.6116
 31
0.0
  0
LINE
  8
0
 62
     0
 10
18.6201
 20
36.6116
 30
0.0
 11
19.4193
 21
36.6116
 31
0.0
  0
LINE
  8
0
 62
     0
 10
19.4193
 20
36.6116
 30
0.0
 11
19.4193
 21
39.7108
 31
0.0
  0
LINE
  8
0
 62
     0
 10
19.4193
 20
39.7108
 30
0.0
 11
18.6201
 21
39.7108
 31
0.0
  0
LINE
  8
0
 62
     0
 10
18.6201
 20
39.7108
 30
0.0
 11
18.6201
 21
40.7113
 31
0.0
  0
LINE
  8
0
 62
     0
 10
18.6201
 20
40.7113
 30
0.0
 11
4.61779
 21
40.7113
 31
0.0
  0
LINE
  8
0
 62
     0
 10
23.6692
 20
40.7113
 30
0.0
 11
23.6692
 21
39.7108
 31
0.0
  0
LINE
  8
0
 62
     0
 10
23.6692
 20
39.7108
 30
0.0
 11
22.8699
 21
39.7108
 31
0.0
  0
LINE
  8
0
 62
     0
 10
22.8699
 20
39.7108
 30
0.0
 11
22.8699
 21
36.6116
 31
0.0
  0
LINE
  8
0
 62
     0
 10
22.8699
 20
36.6116
 30
0.0
 11
23.6692
 21
36.6116
 31
0.0
  0
LINE
  8
0
 62
     0
 10
23.6692
 20
36.6116
 30
0.0
 11
23.6692
 21
30.8115
 31
0.0
  0
LINE
  8
0
 62
     0
 10
23.6692
 20
30.8115
 30
0.0
 11
22.8699
 21
30.8115
 31
0.0
  0
LINE
  8
0
 62
     0
 10
22.8699
 20
30.8115
 30
0.0
 11
22.8699
 21
27.711
 31
0.0
  0
LINE
  8
0
 62
     0
 10
22.8699
 20
27.711
 30
0.0
 11
23.6692
 21
27.711
 31
0.0
  0
LINE
  8
0
 62
     0
 10
23.6692
 20
27.711
 30
0.0
 11
23.6692
 21
26.7105
 31
0.0
  0
LINE
  8
0
 62
     0
 10
23.6692
 20
26.7105
 30
0.0
 11
37.67
 21
26.7105
 31
0.0
  0
LINE
  8
0
 62
     0
 10
37.67
 20
26.7105
 30
0.0
 11
37.67
 21
27.711
 31
0.0
  0
LINE
  8
0
 62
     0
 10
37.67
 20
27.711
 30
0.0
 11
38.4694
 21
27.711
 31
0.0
  0
LINE
  8
0
 62
     0
 10
38.4694
 20
27.711
 30
0.0
 11
38.4694
 21
30.8115
 31
0.0
  0
LINE
  8
0
 62
     0
 10
38.4694
 20
30.8115
 30
0.0
 11
37.67
 21
30.8115
 31
0.0
  0
LINE
  8
0
 62
     0
 10
37.67
 20
30.8115
 30
0.0
 11
37.67
 21
36.6116
 31
0.0
  0
LINE
  8
0
 62
     0
 10
37.67
 20
36.6116
 30
0.0
 11
38.4694
 21
36.6116
 31
0.0
  0
LINE
  8
0
 62
     0
 10
38.4694
 20
36.6116
 30
0.0
 11
38.4694
 21
39.7108
 31
0.0
  0
LINE
  8
0
 62
     0
 10
38.4694
 20
39.7108
 30
0.0
 11
37.67
 21
39.7108
 31
0.0
  0
LINE
  8
0
 62
     0
 10
37.67
 20
39.7108
 30
0.0
 11
37.67
 21
40.7113
 31
0.0
  0
LINE
  8
0
 62
     0
 10
37.67
 20
40.7113
 30
0.0
 11
23.6692
 21
40.7113
 31
0.0
  0
LINE
  8
0
 62
     0
 10
4.61779
 20
59.7613
 30
0.0
 11
4.61779
 21
58.7608
 31
0.0
  0
LINE
  8
0
 62
     0
 10
4.61779
 20
58.7608
 30
0.0
 11
3.81854
 21
58.7608
 31
0.0
  0
LINE
  8
0
 62
     0
 10
3.81854
 20
58.7608
 30
0.0
 11
3.81854
 21
55.6616
 31
0.0
  0
LINE
  8
0
 62
     0
 10
3.81854
 20
55.6616
 30
0.0
 11
4.61779
 21
55.6616
 31
0.0
  0
LINE
  8
0
 62
     0
 10
4.61779
 20
55.6616
 30
0.0
 11
4.61779
 21
49.8616
 31
0.0
  0
LINE
  8
0
 62
     0
 10
4.61779
 20
49.8616
 30
0.0
 11
3.81854
 21
49.8616
 31
0.0
  0
LINE
  8
0
 62
     0
 10
3.81854
 20
49.8616
 30
0.0
 11
3.81854
 21
46.761
 31
0.0
  0
LINE
  8
0
 62
     0
 10
3.81854
 20
46.761
 30
0.0
 11
4.61779
 21
46.761
 31
0.0
  0
LINE
  8
0
 62
     0
 10
4.61779
 20
46.761
 30
0.0
 11
4.61779
 21
45.7606
 31
0.0
  0
LINE
  8
0
 62
     0
 10
4.61779
 20
45.7606
 30
0.0
 11
18.6201
 21
45.7606
 31
0.0
  0
LINE
  8
0
 62
     0
 10
18.6201
 20
45.7606
 30
0.0
 11
18.6201
 21
46.761
 31
0.0
  0
LINE
  8
0
 62
     0
 10
18.6201
 20
46.761
 30
0.0
 11
19.4193
 21
46.761
 31
0.0
  0
LINE
  8
0
 62
     0
 10
19.4193
 20
46.761
 30
0.0
 11
19.4193
 21
49.8616
 31
0.0
  0
LINE
  8
0
 62
     0
 10
19.4193
 20
49.8616
 30
0.0
 11
18.6201
 21
49.8616
 31
0.0
  0
LINE
  8
0
 62
     0
 10
18.6201
 20
49.8616
 30
0.0
 11
18.6201
 21
55.6616
 31
0.0
  0
LINE
  8
0
 62
     0
 10
18.6201
 20
55.6616
 30
0.0
 11
19.4193
 21
55.6616
 31
0.0
  0
LINE
  8
0
 62
     0
 10
19.4193
 20
55.6616
 30
0.0
 11
19.4193
 21
58.7608
 31
0.0
  0
LINE
  8
0
 62
     0
 10
19.4193
 20
58.7608
 30
0.0
 11
18.6201
 21
58.7608
 31
0.0
  0
LINE
  8
0
 62
     0
 10
18.6201
 20
58.7608
 30
0.0
 11
18.6201
 21
59.7613
 31
0.0
  0
LINE
  8
0
 62
     0
 10
18.6201
 20
59.7613
 30
0.0
 11
4.61779
 21
59.7613
 31
0.0
  0
LINE
  8
0
 62
     0
 10
23.6692
 20
59.7613
 30
0.0
 11
23.6692
 21
58.7608
 31
0.0
  0
LINE
  8
0
 62
     0
 10
23.6692
 20
58.7608
 30
0.0
 11
22.8699
 21
58.7608
 31
0.0
  0
LINE
  8
0
 62
     0
 10
22.8699
 20
58.7608
 30
0.0
 11
22.8699
 21
55.6616
 31
0.0
  0
LINE
  8
0
 62
     0
 10
22.8699
 20
55.6616
 30
0.0
 11
23.6692
 21
55.6616
 31
0.0
  0
LINE
  8
0
 62
     0
 10
23.6692
 20
55.6616
 30
0.0
 11
23.6692
 21
49.8616
 31
0.0
  0
LINE
  8
0
 62
     0
 10
23.6692
 20
49.8616
 30
0.0
 11
22.8699
 21
49.8616
 31
0.0
  0
LINE
  8
0
 62
     0
 10
22.8699
 20
49.8616
 30
0.0
 11
22.8699
 21
46.761
 31
0.0
  0
LINE
  8
0
 62
     0
 10
22.8699
 20
46.761
 30
0.0
 11
23.6692
 21
46.761
 31
0.0
  0
LINE
  8
0
 62
     0
 10
23.6692
 20
46.761
 30
0.0
 11
23.6692
 21
45.7606
 31
0.0
  0
LINE
  8
0
 62
     0
 10
23.6692
 20
45.7606
 30
0.0
 11
37.67
 21
45.7606
 31
0.0
  0
LINE
  8
0
 62
     0
 10
37.67
 20
45.7606
 30
0.0
 11
37.67
 21
46.761
 31
0.0
  0
LINE
  8
0
 62
     0
 10
37.67
 20
46.761
 30
0.0
 11
38.4694
 21
46.761
 31
0.0
  0
LINE
  8
0
 62
     0
 10
38.4694
 20
46.761
 30
0.0
 11
38.4694
 21
49.8616
 31
0.0
  0
LINE
  8
0
 62
     0
 10
38.4694
 20
49.8616
 30
0.0
 11
37.67
 21
49.8616
 31
0.0
  0
LINE
  8
0
 62
     0
 10
37.67
 20
49.8616
 30
0.0
 11
37.67
 21
55.6616
 31
0.0
  0
LINE
  8
0
 62
     0
 10
37.67
 20
55.6616
 30
0.0
 11
38.4694
 21
55.6616
 31
0.0
  0
LINE
  8
0
 62
     0
 10
38.4694
 20
55.6616
 30
0.0
 11
38.4694
 21
58.7608
 31
0.0
  0
LINE
  8
0
 62
     0
 10
38.4694
 20
58.7608
 30
0.0
 11
37.67
 21
58.7608
 31
0.0
  0
LINE
  8
0
 62
     0
 10
37.67
 20
58.7608
 30
0.0
 11
37.67
 21
59.7613
 31
0.0
  0
LINE
  8
0
 62
     0
 10
37.67
 20
59.7613
 30
0.0
 11
23.6692
 21
59.7613
 31
0.0
  0
LINE
  8
0
 62
     0
 10
42.7193
 20
59.7613
 30
0.0
 11
42.7193
 21
58.7608
 31
0.0
  0
LINE
  8
0
 62
     0
 10
42.7193
 20
58.7608
 30
0.0
 11
41.9199
 21
58.7608
 31
0.0
  0
LINE
  8
0
 62
     0
 10
41.9199
 20
58.7608
 30
0.0
 11
41.9199
 21
55.6616
 31
0.0
  0
LINE
  8
0
 62
     0
 10
41.9199
 20
55.6616
 30
0.0
 11
42.7193
 21
55.6616
 31
0.0
  0
LINE
  8
0
 62
     0
 10
42.7193
 20
55.6616
 30
0.0
 11
42.7193
 21
49.8616
 31
0.0
  0
LINE
  8
0
 62
     0
 10
42.7193
 20
49.8616
 30
0.0
 11
41.9199
 21
49.8616
 31
0.0
  0
LINE
  8
0
 62
     0
 10
41.9199
 20
49.8616
 30
0.0
 11
41.9199
 21
46.761
 31
0.0
  0
LINE
  8
0
 62
     0
 10
41.9199
 20
46.761
 30
0.0
 11
42.7193
 21
46.761
 31
0.0
  0
LINE
  8
0
 62
     0
 10
42.7193
 20
46.761
 30
0.0
 11
42.7193
 21
45.7606
 31
0.0
  0
LINE
  8
0
 62
     0
 10
42.7193
 20
45.7606
 30
0.0
 11
56.72
 21
45.7606
 31
0.0
  0
LINE
  8
0
 62
     0
 10
56.72
 20
45.7606
 30
0.0
 11
56.72
 21
46.761
 31
0.0
  0
LINE
  8
0
 62
     0
 10
56.72
 20
46.761
 30
0.0
 11
57.5194
 21
46.761
 31
0.0
  0
LINE
  8
0
 62
     0
 10
57.5194
 20
46.761
 30
0.0
 11
57.5194
 21
49.8616
 31
0.0
  0
LINE
  8
0
 62
     0
 10
57.5194
 20
49.8616
 30
0.0
 11
56.72
 21
49.8616
 31
0.0
  0
LINE
  8
0
 62
     0
 10
56.72
 20
49.8616
 30
0.0
 11
56.72
 21
55.6616
 31
0.0
  0
LINE
  8
0
 62
     0
 10
56.72
 20
55.6616
 30
0.0
 11
57.5194
 21
55.6616
 31
0.0
  0
LINE
  8
0
 62
     0
 10
57.5194
 20
55.6616
 30
0.0
 11
57.5194
 21
58.7608
 31
0.0
  0
LINE
  8
0
 62
     0
 10
57.5194
 20
58.7608
 30
0.0
 11
56.72
 21
58.7608
 31
0.0
  0
LINE
  8
0
 62
     0
 10
56.72
 20
58.7608
 30
0.0
 11
56.72
 21
59.7613
 31
0.0
  0
LINE
  8
0
 62
     0
 10
56.72
 20
59.7613
 30
0.0
 11
42.7193
 21
59.7613
 31
0.0
  0
LINE
  8
0
 62
     0
 10
61.7693
 20
59.7613
 30
0.0
 11
61.7693
 21
58.7608
 31
0.0
  0
LINE
  8
0
 62
     0
 10
61.7693
 20
58.7608
 30
0.0
 11
60.9699
 21
58.7608
 31
0.0
  0
LINE
  8
0
 62
     0
 10
60.9699
 20
58.7608
 30
0.0
 11
60.9699
 21
55.6616
 31
0.0
  0
LINE
  8
0
 62
     0
 10
60.9699
 20
55.6616
 30
0.0
 11
61.7693
 21
55.6616
 31
0.0
  0
LINE
  8
0
 62
     0
 10
61.7693
 20
55.6616
 30
0.0
 11
61.7693
 21
49.8616
 31
0.0
  0
LINE
  8
0
 62
     0
 10
61.7693
 20
49.8616
 30
0.0
 11
60.9699
 21
49.8616
 31
0.0
  0
LINE
  8
0
 62
     0
 10
60.9699
 20
49.8616
 30
0.0
 11
60.9699
 21
46.761
 31
0.0
  0
LINE
  8
0
 62
     0
 10
60.9699
 20
46.761
 30
0.0
 11
61.7693
 21
46.761
 31
0.0
  0
LINE
  8
0
 62
     0
 10
61.7693
 20
46.761
 30
0.0
 11
61.7693
 21
45.7606
 31
0.0
  0
LINE
  8
0
 62
     0
 10
61.7693
 20
45.7606
 30
0.0
 11
75.77
 21
45.7606
 31
0.0
  0
LINE
  8
0
 62
     0
 10
75.77
 20
45.7606
 30
0.0
 11
75.77
 21
46.761
 31
0.0
  0
LINE
  8
0
 62
     0
 10
75.77
 20
46.761
 30
0.0
 11
76.5694
 21
46.761
 31
0.0
  0
LINE
  8
0
 62
     0
 10
76.5694
 20
46.761
 30
0.0
 11
76.5694
 21
49.8616
 31
0.0
  0
LINE
  8
0
 62
     0
 10
76.5694
 20
49.8616
 30
0.0
 11
75.77
 21
49.8616
 31
0.0
  0
LINE
  8
0
 62
     0
 10
75.77
 20
49.8616
 30
0.0
 11
75.77
 21
55.6616
 31
0.0
  0
LINE
  8
0
 62
     0
 10
75.77
 20
55.6616
 30
0.0
 11
76.5694
 21
55.6616
 31
0.0
  0
LINE
  8
0
 62
     0
 10
76.5694
 20
55.6616
 30
0.0
 11
76.5694
 21
58.7608
 31
0.0
  0
LINE
  8
0
 62
     0
 10
76.5694
 20
58.7608
 30
0.0
 11
75.77
 21
58.7608
 31
0.0
  0
LINE
  8
0
 62
     0
 10
75.77
 20
58.7608
 30
0.0
 11
75.77
 21
59.7613
 31
0.0
  0
LINE
  8
0
 62
     0
 10
75.77
 20
59.7613
 30
0.0
 11
61.7693
 21
59.7613
 31
0.0
  0
LINE
  8
0
 62
     0
 10
52.2443
 20
88.3363
 30
0.0
 11
52.2443
 21
87.3372
 31
0.0
  0
LINE
  8
0
 62
     0
 10
52.2443
 20
87.3372
 30
0.0
 11
51.4449
 21
87.3372
 31
0.0
  0
LINE
  8
0
 62
     0
 10
51.4449
 20
87.3372
 30
0.0
 11
51.4449
 21
84.2366
 31
0.0
  0
LINE
  8
0
 62
     0
 10
51.4449
 20
84.2366
 30
0.0
 11
52.2443
 21
84.2366
 31
0.0
  0
LINE
  8
0
 62
     0
 10
52.2443
 20
84.2366
 30
0.0
 11
52.2443
 21
83.6373
 31
0.0
  0
LINE
  8
0
 62
     0
 10
52.2443
 20
83.6373
 30
0.0
 11
50.7199
 21
83.6373
 31
0.0
  0
LINE
  8
0
 62
     0
 10
50.7199
 20
83.6373
 30
0.0
 11
50.7199
 21
86.8673
 31
0.0
  0
LINE
  8
0
 62
     0
 10
50.7199
 20
86.8673
 30
0.0
 11
48.9948
 21
86.8673
 31
0.0
  0
LINE
  8
0
 62
     0
 10
48.9948
 20
86.8673
 30
0.0
 11
48.9948
 21
87.7866
 31
0.0
  0
LINE
  8
0
 62
     0
 10
48.9948
 20
87.7866
 30
0.0
 11
45.6942
 21
87.7866
 31
0.0
  0
LINE
  8
0
 62
     0
 10
45.6942
 20
87.7866
 30
0.0
 11
45.6942
 21
86.8673
 31
0.0
  0
LINE
  8
0
 62
     0
 10
45.6942
 20
86.8673
 30
0.0
 11
43.9692
 21
86.8673
 31
0.0
  0
LINE
  8
0
 62
     0
 10
43.9692
 20
86.8673
 30
0.0
 11
43.9692
 21
83.6373
 31
0.0
  0
LINE
  8
0
 62
     0
 10
43.9692
 20
83.6373
 30
0.0
 11
43.1451
 21
83.6373
 31
0.0
  0
LINE
  8
0
 62
     0
 10
43.1451
 20
83.6373
 30
0.0
 11
43.1451
 21
80.8359
 31
0.0
  0
LINE
  8
0
 62
     0
 10
43.1451
 20
80.8359
 30
0.0
 11
43.9692
 21
80.8359
 31
0.0
  0
LINE
  8
0
 62
     0
 10
43.9692
 20
80.8359
 30
0.0
 11
43.9692
 21
74.567
 31
0.0
  0
LINE
  8
0
 62
     0
 10
43.9692
 20
74.567
 30
0.0
 11
45.6942
 21
74.567
 31
0.0
  0
LINE
  8
0
 62
     0
 10
45.6942
 20
74.567
 30
0.0
 11
45.6942
 21
73.5859
 31
0.0
  0
LINE
  8
0
 62
     0
 10
45.6942
 20
73.5859
 30
0.0
 11
48.9948
 21
73.5859
 31
0.0
  0
LINE
  8
0
 62
     0
 10
48.9948
 20
73.5859
 30
0.0
 11
48.9948
 21
74.567
 31
0.0
  0
LINE
  8
0
 62
     0
 10
48.9948
 20
74.567
 30
0.0
 11
50.7199
 21
74.567
 31
0.0
  0
LINE
  8
0
 62
     0
 10
50.7199
 20
74.567
 30
0.0
 11
50.7199
 21
79.036
 31
0.0
  0
LINE
  8
0
 62
     0
 10
50.7199
 20
79.036
 30
0.0
 11
52.2443
 21
79.036
 31
0.0
  0
LINE
  8
0
 62
     0
 10
52.2443
 20
79.036
 30
0.0
 11
52.2443
 21
78.4366
 31
0.0
  0
LINE
  8
0
 62
     0
 10
52.2443
 20
78.4366
 30
0.0
 11
51.4449
 21
78.4366
 31
0.0
  0
LINE
  8
0
 62
     0
 10
51.4449
 20
78.4366
 30
0.0
 11
51.4449
 21
75.336
 31
0.0
  0
LINE
  8
0
 62
     0
 10
51.4449
 20
75.336
 30
0.0
 11
52.2443
 21
75.336
 31
0.0
  0
LINE
  8
0
 62
     0
 10
52.2443
 20
75.336
 30
0.0
 11
52.2443
 21
74.3356
 31
0.0
  0
LINE
  8
0
 62
     0
 10
52.2443
 20
74.3356
 30
0.0
 11
66.245
 21
74.3356
 31
0.0
  0
LINE
  8
0
 62
     0
 10
66.245
 20
74.3356
 30
0.0
 11
66.245
 21
75.336
 31
0.0
  0
LINE
  8
0
 62
     0
 10
66.245
 20
75.336
 30
0.0
 11
67.0444
 21
75.336
 31
0.0
  0
LINE
  8
0
 62
     0
 10
67.0444
 20
75.336
 30
0.0
 11
67.0444
 21
78.4366
 31
0.0
  0
LINE
  8
0
 62
     0
 10
67.0444
 20
78.4366
 30
0.0
 11
66.245
 21
78.4366
 31
0.0
  0
LINE
  8
0
 62
     0
 10
66.245
 20
78.4366
 30
0.0
 11
66.245
 21
79.036
 31
0.0
  0
LINE
  8
0
 62
     0
 10
66.245
 20
79.036
 30
0.0
 11
67.7693
 21
79.036
 31
0.0
  0
LINE
  8
0
 62
     0
 10
67.7693
 20
79.036
 30
0.0
 11
67.7693
 21
74.567
 31
0.0
  0
LINE
  8
0
 62
     0
 10
67.7693
 20
74.567
 30
0.0
 11
69.4944
 21
74.567
 31
0.0
  0
LINE
  8
0
 62
     0
 10
69.4944
 20
74.567
 30
0.0
 11
69.4944
 21
73.5859
 31
0.0
  0
LINE
  8
0
 62
     0
 10
69.4944
 20
73.5859
 30
0.0
 11
72.795
 21
73.5859
 31
0.0
  0
LINE
  8
0
 62
     0
 10
72.795
 20
73.5859
 30
0.0
 11
72.795
 21
74.567
 31
0.0
  0
LINE
  8
0
 62
     0
 10
72.795
 20
74.567
 30
0.0
 11
74.5201
 21
74.567
 31
0.0
  0
LINE
  8
0
 62
     0
 10
74.5201
 20
74.567
 30
0.0
 11
74.5201
 21
80.8359
 31
0.0
  0
LINE
  8
0
 62
     0
 10
74.5201
 20
80.8359
 30
0.0
 11
75.3442
 21
80.8359
 31
0.0
  0
LINE
  8
0
 62
     0
 10
75.3442
 20
80.8359
 30
0.0
 11
75.3442
 21
83.6373
 31
0.0
  0
LINE
  8
0
 62
     0
 10
75.3442
 20
83.6373
 30
0.0
 11
74.5201
 21
83.6373
 31
0.0
  0
LINE
  8
0
 62
     0
 10
74.5201
 20
83.6373
 30
0.0
 11
74.5201
 21
86.8673
 31
0.0
  0
LINE
  8
0
 62
     0
 10
74.5201
 20
86.8673
 30
0.0
 11
72.795
 21
86.8673
 31
0.0
  0
LINE
  8
0
 62
     0
 10
72.795
 20
86.8673
 30
0.0
 11
72.795
 21
87.7866
 31
0.0
  0
LINE
  8
0
 62
     0
 10
72.795
 20
87.7866
 30
0.0
 11
69.4944
 21
87.7866
 31
0.0
  0
LINE
  8
0
 62
     0
 10
69.4944
 20
87.7866
 30
0.0
 11
69.4944
 21
86.8673
 31
0.0
  0
LINE
  8
0
 62
     0
 10
69.4944
 20
86.8673
 30
0.0
 11
67.7693
 21
86.8673
 31
0.0
  0
LINE
  8
0
 62
     0
 10
67.7693
 20
86.8673
 30
0.0
 11
67.7693
 21
83.6373
 31
0.0
  0
LINE
  8
0
 62
     0
 10
67.7693
 20
83.6373
 30
0.0
 11
66.245
 21
83.6373
 31
0.0
  0
LINE
  8
0
 62
     0
 10
66.245
 20
83.6373
 30
0.0
 11
66.245
 21
84.2366
 31
0.0
  0
LINE
  8
0
 62
     0
 10
66.245
 20
84.2366
 30
0.0
 11
67.0444
 21
84.2366
 31
0.0
  0
LINE
  8
0
 62
     0
 10
67.0444
 20
84.2366
 30
0.0
 11
67.0444
 21
87.3372
 31
0.0
  0
LINE
  8
0
 62
     0
 10
67.0444
 20
87.3372
 30
0.0
 11
66.245
 21
87.3372
 31
0.0
  0
LINE
  8
0
 62
     0
 10
66.245
 20
87.3372
 30
0.0
 11
66.245
 21
88.3363
 31
0.0
  0
LINE
  8
0
 62
     0
 10
66.245
 20
88.3363
 30
0.0
 11
52.2443
 21
88.3363
 31
0.0
  0
LINE
  8
0
 62
     0
 10
4.61779
 20
88.3363
 30
0.0
 11
4.61779
 21
87.3372
 31
0.0
  0
LINE
  8
0
 62
     0
 10
4.61779
 20
87.3372
 30
0.0
 11
3.81854
 21
87.3372
 31
0.0
  0
LINE
  8
0
 62
     0
 10
3.81854
 20
87.3372
 30
0.0
 11
3.81854
 21
84.2366
 31
0.0
  0
LINE
  8
0
 62
     0
 10
3.81854
 20
84.2366
 30
0.0
 11
4.61779
 21
84.2366
 31
0.0
  0
LINE
  8
0
 62
     0
 10
4.61779
 20
84.2366
 30
0.0
 11
4.61779
 21
78.4366
 31
0.0
  0
LINE
  8
0
 62
     0
 10
4.61779
 20
78.4366
 30
0.0
 11
3.81854
 21
78.4366
 31
0.0
  0
LINE
  8
0
 62
     0
 10
3.81854
 20
78.4366
 30
0.0
 11
3.81854
 21
75.336
 31
0.0
  0
LINE
  8
0
 62
     0
 10
3.81854
 20
75.336
 30
0.0
 11
4.61779
 21
75.336
 31
0.0
  0
LINE
  8
0
 62
     0
 10
4.61779
 20
75.336
 30
0.0
 11
4.61779
 21
74.3356
 31
0.0
  0
LINE
  8
0
 62
     0
 10
4.61779
 20
74.3356
 30
0.0
 11
18.6201
 21
74.3356
 31
0.0
  0
LINE
  8
0
 62
     0
 10
18.6201
 20
74.3356
 30
0.0
 11
18.6201
 21
75.336
 31
0.0
  0
LINE
  8
0
 62
     0
 10
18.6201
 20
75.336
 30
0.0
 11
19.4193
 21
75.336
 31
0.0
  0
LINE
  8
0
 62
     0
 10
19.4193
 20
75.336
 30
0.0
 11
19.4193
 21
78.4366
 31
0.0
  0
LINE
  8
0
 62
     0
 10
19.4193
 20
78.4366
 30
0.0
 11
18.6201
 21
78.4366
 31
0.0
  0
LINE
  8
0
 62
     0
 10
18.6201
 20
78.4366
 30
0.0
 11
18.6201
 21
84.2366
 31
0.0
  0
LINE
  8
0
 62
     0
 10
18.6201
 20
84.2366
 30
0.0
 11
19.4193
 21
84.2366
 31
0.0
  0
LINE
  8
0
 62
     0
 10
19.4193
 20
84.2366
 30
0.0
 11
19.4193
 21
87.3372
 31
0.0
  0
LINE
  8
0
 62
     0
 10
19.4193
 20
87.3372
 30
0.0
 11
18.6201
 21
87.3372
 31
0.0
  0
LINE
  8
0
 62
     0
 10
18.6201
 20
87.3372
 30
0.0
 11
18.6201
 21
88.3363
 31
0.0
  0
LINE
  8
0
 62
     0
 10
18.6201
 20
88.3363
 30
0.0
 11
4.61779
 21
88.3363
 31
0.0
  0
ENDSEC
  0
EOF
