<?xml version="1.0"?>
<!-- Generated by SVGo -->
<svg width="90.201mm" height="105.726mm"
     viewBox="0.000 0.000 90.201 105.726"
     xmlns="http://www.w3.org/2000/svg" 
     xmlns:xlink="http://www.w3.org/1999/xlink">
<polygon points="85.201,100.726 5.000,100.726 5.000,5.000 85.201,5.000" style="fill:none;stroke-width:0.050000mm;stroke:black"/>
<polygon points="9.524,79.200 9.524,80.200 8.724,80.200 8.724,83.300 9.524,83.300 9.524,89.100 8.724,89.100 8.724,92.200 9.524,92.200 9.524,93.200 23.525,93.200 23.525,92.200 24.325,92.200 24.325,89.100 23.525,89.100 23.525,83.300 24.325,83.300 24.325,80.200 23.525,80.200 23.525,79.200" style="fill:none;stroke-width:0.050000mm;stroke:black"/>
<polygon points="28.575,79.200 28.575,80.200 27.775,80.200 27.775,83.300 28.575,83.300 28.575,89.100 27.775,89.100 27.775,92.200 28.575,92.200 28.575,93.200 42.575,93.200 42.575,92.200 43.375,92.200 43.375,89.100 42.575,89.100 42.575,83.300 43.375,83.300 43.375,80.200 42.575,80.200 42.575,79.200" style="fill:none;stroke-width:0.050000mm;stroke:black"/>
<polygon points="57.150,69.675 57.150,70.675 56.350,70.675 56.350,73.775 57.150,73.775 57.150,79.575 56.350,79.575 56.350,82.675 57.150,82.675 57.150,83.675 71.150,83.675 71.150,82.675 71.950,82.675 71.950,79.575 71.150,79.575 71.150,73.775 71.950,73.775 71.950,70.675 71.150,70.675 71.150,69.675" style="fill:none;stroke-width:0.050000mm;stroke:black"/>
<polygon points="9.524,60.150 9.524,61.150 8.724,61.150 8.724,64.250 9.524,64.250 9.524,70.050 8.724,70.050 8.724,73.150 9.524,73.150 9.524,74.150 23.525,74.150 23.525,73.150 24.325,73.150 24.325,70.050 23.525,70.050 23.525,64.250 24.325,64.250 24.325,61.150 23.525,61.150 23.525,60.150" style="fill:none;stroke-width:0.050000mm;stroke:black"/>
<polygon points="28.575,60.150 28.575,61.150 27.775,61.150 27.775,64.250 28.575,64.250 28.575,70.050 27.775,70.050 27.775,73.150 28.575,73.150 28.575,74.150 42.575,74.150 42.575,73.150 43.375,73.150 43.375,70.050 42.575,70.050 42.575,64.250 43.375,64.250 43.375,61.150 42.575,61.150 42.575,60.150" style="fill:none;stroke-width:0.050000mm;stroke:black"/>
<polygon points="9.524,41.100 9.524,42.100 8.724,42.100 8.724,45.200 9.524,45.200 9.524,51.000 8.724,51.000 8.724,54.100 9.524,54.100 9.524,55.100 23.525,55.100 23.525,54.100 24.325,54.100 24.325,51.000 23.525,51.000 23.525,45.200 24.325,45.200 24.325,42.100 23.525,42.100 23.525,41.100" style="fill:none;stroke-width:0.050000mm;stroke:black"/>
<polygon points="28.575,41.100 28.575,42.100 27.775,42.100 27.775,45.200 28.575,45.200 28.575,51.000 27.775,51.000 27.775,54.100 28.575,54.100 28.575,55.100 42.575,55.100 42.575,54.100 43.375,54.100 43.375,51.000 42.575,51.000 42.575,45.200 43.375,45.200 43.375,42.100 42.575,42.100 42.575,41.100" style="fill:none;stroke-width:0.050000mm;stroke:black"/>
<polygon points="47.625,41.100 47.625,42.100 46.825,42.100 46.825,45.200 47.625,45.200 47.625,51.000 46.825,51.000 46.825,54.100 47.625,54.100 47.625,55.100 61.625,55.100 61.625,54.100 62.425,54.100 62.425,51.000 61.625,51.000 61.625,45.200 62.425,45.200 62.425,42.100 61.625,42.100 61.625,41.100" style="fill:none;stroke-width:0.050000mm;stroke:black"/>
<polygon points="66.675,41.100 66.675,42.100 65.875,42.100 65.875,45.200 66.675,45.200 66.675,51.000 65.875,51.000 65.875,54.100 66.675,54.100 66.675,55.100 80.675,55.100 80.675,54.100 81.475,54.100 81.475,51.000 80.675,51.000 80.675,45.200 81.475,45.200 81.475,42.100 80.675,42.100 80.675,41.100" style="fill:none;stroke-width:0.050000mm;stroke:black"/>
<polygon points="57.150,12.524 57.150,13.524 56.350,13.524 56.350,16.625 57.150,16.625 57.150,17.224 55.625,17.224 55.625,13.994 53.900,13.994 53.900,13.075 50.600,13.075 50.600,13.994 48.875,13.994 48.875,17.224 48.050,17.224 48.050,20.025 48.875,20.025 48.875,26.294 50.600,26.294 50.600,27.275 53.900,27.275 53.900,26.294 55.625,26.294 55.625,21.825 57.150,21.825 57.150,22.424 56.350,22.424 56.350,25.525 57.150,25.525 57.150,26.525 71.150,26.525 71.150,25.525 71.950,25.525 71.950,22.424 71.150,22.424 71.150,21.825 72.675,21.825 72.675,26.294 74.400,26.294 74.400,27.275 77.700,27.275 77.700,26.294 79.425,26.294 79.425,20.025 80.250,20.025 80.250,17.224 79.425,17.224 79.425,13.994 77.700,13.994 77.700,13.075 74.400,13.075 74.400,13.994 72.675,13.994 72.675,17.224 71.150,17.224 71.150,16.625 71.950,16.625 71.950,13.524 71.150,13.524 71.150,12.524" style="fill:none;stroke-width:0.050000mm;stroke:black"/>
<polygon points="9.524,12.524 9.524,13.524 8.724,13.524 8.724,16.625 9.524,16.625 9.524,22.424 8.724,22.424 8.724,25.525 9.524,25.525 9.524,26.525 23.525,26.525 23.525,25.525 24.325,25.525 24.325,22.424 23.525,22.424 23.525,16.625 24.325,16.625 24.325,13.524 23.525,13.524 23.525,12.524" style="fill:none;stroke-width:0.050000mm;stroke:black"/>
</svg>
